{"title":"300 Rise Of An Empire  Webrip XviD Feel-Free","uid":9809679,"size":1373710105,"categoryP":"video","categoryS":"movies","magnet":"?xt=urn:btih:77925cf3571d1d93763ec3fca5c864f346b7b458&amp;dn=300+Rise+Of+An+Empire++Webrip+XviD+Feel-Free&amp;tr=udp%3A%2F%2Ftracker.openbittorrent.com%3A80&amp;tr=udp%3A%2F%2Fopen.demonii.com%3A1337&amp;tr=udp%3A%2F%2Ftracker.coppersurfer.tk%3A6969&amp;tr=udp%3A%2F%2Fexodus.desync.com%3A6969","seeders":21,"leechers":4,"uploader":"SaM","files":8,"time":1395505885,"description":"\nGenre:Action | Drama | War\nLanguage:English\nIMDb:http://www.imdb.com/title/tt1253863/\nSource:720p R6 Webrip Thanks\nSample:Never\nEncoder:Tony\n\nFormat : AVI\nFormat/Info : Audio Video Interleave\nFile size : 1.28 GiB\nDuration : 1h 43mn\nOverall bit rate : 1 777 Kbps\n\nVideo\nID : 0\nFormat : MPEG-4 Visual\nFormat profile : Advanced Simple@L5\nFormat settings, BVOP : 1\nFormat settings, QPel : No\nFormat settings, GMC : No warppoints\nFormat settings, Matrix : Default (H.263)\nCodec ID : XVID\nCodec ID/Hint : XviD\nDuration : 1h 43mn\nBit rate : 1 608 Kbps\nWidth : 640 pixels\nHeight : 256 pixels\nDisplay aspect ratio : 2.500\nFrame rate : 23.976 fps\nColor space : YUV\nChroma subsampling : 4:2:0\nBit depth : 8 bits\nScan type : Progressive\nCompression mode : Lossy\nBits/(Pixel*Frame) : 0.409\nStream size : 1.16 GiB (90%)\nWriting library : XviD 1.2.1 (UTC 2008-12-04)\n\nAudio\nID : 1\nFormat : AC-3\nFormat/Info : Audio Coding 3\nMode extension : CM (complete main)\nCodec ID : 2000\nDuration : 1h 43mn\nBit rate mode : Constant\nBit rate : 160 Kbps\nChannel(s) : 2 channels\nChannel positions : Front: L R\nSampling rate : 48.0 KHz\nBit depth : 16 bits\nCompression mode : Lossy\nStream size : 118 MiB (9%)\nAlignment : Aligned on interleaves\nInterleave, duration : 42 ms (1.00 video frame)\nInterleave, preload duration : 512 ms\n &lt;a href=&quot;\nhttp://www.postimg.com/145000/vlcsnap-2014-03-22-12h51m54s47-144682.jpg&quot; rel=&quot;nofollow&quot; target=&quot;_NEW&quot;&gt;\nhttp://www.postimg.com/145000/vlcsnap-2014-03-22-12h51m54s47-144682.jpg&lt;/a&gt;\n &lt;a href=&quot;\nhttp://www.postimg.com/145000/vlcsnap-2014-03-22-12h52m04s145-144684.jpg&quot; rel=&quot;nofollow&quot; target=&quot;_NEW&quot;&gt;\nhttp://www.postimg.com/145000/vlcsnap-2014-03-22-12h52m04s145-144684.jpg&lt;/a&gt;\n &lt;a href=&quot;\nhttp://www.postimg.com/145000/vlcsnap-2014-03-22-12h52m00s106-144685.jpg&quot; rel=&quot;nofollow&quot; target=&quot;_NEW&quot;&gt;\nhttp://www.postimg.com/145000/vlcsnap-2014-03-22-12h52m00s106-144685.jpg&lt;/a&gt;\n\nGreets:\nCRYS,INSPiRAL,IMAGINE,LKRG,ADTRG,FXG,3Li,FLAWL3SS,CrEwSaDe,TA,iLLUSiON,EMBER,HOPE,GooN,BBnRG,NOGRP,ETRG,BHRG,iLLUMiNATi,MiSTERE.ViSiON,DTRG SAFCuk009,LU,TheFalcon007,MYSTiC,PrisM,Noir,WBZ,LAP,Rx,Kingdom,SAFCuk009+Fabreezy,HDLiTE,TWiZTED,ETRG.ELEKTRI4KA,MAGNAT,CM8\nAnd to all the other p2p grps past and present\n\nMake sure its a real Feel-Free release @ http://extratorrent.cc/upload/\nThanks to all who promotes release Feel-Free !!!","torrent":{"xt":"urn:btih:77925cf3571d1d93763ec3fca5c864f346b7b458","amp;dn":"300+Rise+Of+An+Empire++Webrip+XviD+Feel-Free","amp;tr":["udp%3A%2F%2Ftracker.openbittorrent.com%3A80","udp%3A%2F%2Fopen.demonii.com%3A1337","udp%3A%2F%2Ftracker.coppersurfer.tk%3A6969","udp%3A%2F%2Fexodus.desync.com%3A6969"],"infoHash":"77925cf3571d1d93763ec3fca5c864f346b7b458","infoHashBuffer":{"type":"Buffer","data":[119,146,92,243,87,29,29,147,118,62,195,252,165,200,100,243,70,183,180,88]},"announce":[],"urlList":[]}}